<svg xmlns="http://www.w3.org/2000/svg" width="512" height="512" viewBox="0 0 512 512" role="img" aria-label="Paypr">
<rect width="512" height="512" rx="112" fill="#161616"></rect><path fill-rule="evenodd" fill="#FAFAF8" d="M102.8 120.6L106.6 120.6L110.4 120.6L114.2 120.6L117.9 120.6L121.7 120.6L125.5 120.6L129.3 120.6L133.1 120.6L136.9 120.6L140.7 120.6L144.5 120.6L148.3 120.6L152.1 120.6L155.9 120.6L159.7 120.6L163.5 120.6L167.3 120.6L171.0 120.6L174.8 120.6L178.6 120.6L182.4 120.6L186.2 120.6L190.0 120.6L193.8 120.6L197.6 120.6L201.4 120.6L205.2 120.6L209.0 120.6L212.8 120.6L216.6 120.6L220.3 120.6L224.1 120.6L227.9 120.6L231.7 120.6L235.5 120.6L239.3 120.6L243.1 120.6L246.9 120.6L250.7 120.6L254.5 120.6L258.3 120.6L262.1 120.6L265.1 121.4L268.9 121.4L271.9 122.1L275.0 122.9L278.0 123.6L281.0 124.4L284.1 125.2L287.1 125.9L290.1 127.4L293.2 128.9L296.2 130.5L299.2 132.0L301.5 133.5L303.8 135.0L306.1 136.5L308.7 138.4L310.6 140.3L313.3 142.2L315.5 144.5L317.8 146.8L319.7 149.4L321.6 151.3L323.5 154.0L325.4 156.6L326.9 159.7L328.4 161.9L330.0 165.0L331.5 168.0L332.2 171.0L333.7 174.1L334.5 177.1L335.3 180.1L336.0 183.2L336.8 186.2L337.5 189.3L337.5 192.3L338.3 195.3L338.3 199.1L339.1 202.1L339.1 205.9L339.1 209.7L339.1 213.5L339.1 217.3L339.1 220.3L338.3 223.4L338.3 227.2L337.5 230.2L336.8 233.2L336.0 236.3L335.3 239.3L334.5 242.3L333.7 245.4L332.2 248.4L331.5 251.4L330.0 253.7L328.4 256.8L326.9 259.8L325.4 262.1L323.9 264.3L322.0 267.0L320.1 269.7L318.2 272.3L315.9 274.6L313.6 276.9L311.4 279.1L308.7 281.0L306.8 282.9L304.5 284.4L302.3 286.0L300.0 287.5L297.0 289.0L293.9 290.5L290.9 292.0L287.9 293.5L284.8 294.3L281.8 295.1L278.8 296.6L275.7 297.3L272.7 297.3L269.7 298.1L266.6 298.9L263.6 298.9L260.6 299.6L256.8 299.6L253.0 299.6L249.2 299.6L245.4 299.6L241.6 299.6L237.8 299.6L234.0 299.6L230.2 299.6L226.4 299.6L222.6 299.6L218.8 299.6L215.0 299.6L211.2 299.6L207.5 299.6L203.7 299.6L199.9 299.6L196.1 299.6L192.3 299.6L188.5 299.6L184.7 299.6L180.9 299.6L177.1 299.6L173.3 299.6L172.9 303.0L172.9 306.8L172.9 310.6L172.9 314.4L172.9 318.2L172.9 322.0L172.9 325.8L172.9 329.6L172.9 333.4L172.9 337.2L172.9 341.0L172.9 344.7L172.9 348.5L172.9 352.3L172.9 356.1L172.9 359.9L172.9 363.7L172.9 367.5L172.9 371.3L172.9 375.1L172.9 378.9L172.9 382.7L172.9 386.5L172.9 390.3L169.5 391.4L165.7 391.4L161.9 391.4L158.2 391.4L154.4 391.4L150.6 391.4L146.8 391.4L143.0 391.4L139.2 391.4L135.4 391.4L131.6 391.4L127.8 391.4L124.0 391.4L120.2 391.4L116.4 391.4L112.6 391.4L108.8 391.4L105.1 391.4L102.4 391.0L102.4 387.2L102.4 383.4L102.4 379.6L102.4 375.8L102.4 372.1L102.4 368.3L102.4 364.5L102.4 360.7L102.4 356.9L102.4 353.1L102.4 349.3L102.4 345.5L102.4 341.7L102.4 337.9L102.4 334.1L102.4 330.3L102.4 326.5L102.4 322.7L102.4 319.0L102.4 315.2L102.4 311.4L102.4 307.6L102.4 303.8L102.4 300.0L102.4 296.2L102.4 292.4L102.4 288.6L102.4 284.8L102.4 281.0L102.4 277.2L102.4 273.4L102.4 269.7L102.4 265.9L102.4 262.1L102.4 258.3L102.4 254.5L102.4 250.7L102.4 246.9L102.4 243.1L102.4 239.3L102.4 235.5L102.4 231.7L102.4 227.9L102.4 224.1L102.4 220.3L102.4 216.6L102.4 212.8L102.4 209.0L102.4 205.2L102.4 201.4L102.4 197.6L102.4 193.8L102.4 190.0L102.4 186.2L102.4 182.4L102.4 178.6L102.4 174.8L102.4 171.0L102.4 167.3L102.4 163.5L102.4 159.7L102.4 155.9L102.4 152.1L102.4 148.3L102.4 144.5L102.4 140.7L102.4 136.9L102.4 133.1L102.4 129.3L102.4 125.5L102.4 121.7L102.4 121.0ZM172.9 175.6L172.9 179.4L172.9 183.2L172.9 187.0L172.9 190.8L172.9 194.6L172.9 198.4L172.9 202.1L172.9 205.9L172.9 209.7L172.9 213.5L172.9 217.3L172.9 221.1L172.9 224.9L172.9 228.7L172.9 232.5L172.9 236.3L172.9 240.1L172.9 243.9L176.4 245.0L180.1 245.0L183.9 245.0L187.7 245.0L191.5 245.0L195.3 245.0L199.1 245.0L202.9 245.0L206.7 245.0L210.5 245.0L214.3 245.0L218.1 245.0L221.9 245.0L225.7 245.0L229.5 245.0L233.2 245.0L237.0 245.0L240.8 245.0L243.9 244.2L246.9 243.5L249.9 242.0L253.0 240.5L255.6 238.6L257.5 236.7L259.8 234.4L261.7 231.7L263.2 229.5L264.0 226.4L265.5 224.1L266.2 221.1L266.2 218.1L267.0 215.0L267.0 211.2L267.0 207.5L267.0 203.7L266.2 200.6L265.5 197.6L264.7 194.6L264.0 191.5L262.1 188.9L260.2 186.2L257.9 183.9L255.6 181.7L253.0 179.8L249.9 178.3L246.9 177.5L243.9 176.7L240.8 176.0L237.8 175.2L234.0 175.2L230.2 175.2L226.4 175.2L222.6 175.2L218.8 175.2L215.0 175.2L211.2 175.2L207.5 175.2L203.7 175.2L199.9 175.2L196.1 175.2L192.3 175.2L188.5 175.2L184.7 175.2L180.9 175.2L177.1 175.2L173.3 175.2Z"></path><path fill="#E53D00" d="M341.7 325.4L345.5 325.4L349.3 325.4L353.1 325.4L356.9 325.4L360.7 325.4L364.5 325.4L368.3 325.4L372.1 325.4L375.8 325.4L379.6 325.4L383.4 325.4L387.2 325.4L391.0 325.4L394.8 325.4L398.6 325.4L402.4 325.4L406.2 325.4L409.2 325.4L409.6 328.8L409.6 332.6L409.6 336.4L409.6 340.2L409.6 344.0L409.6 347.8L409.6 351.6L409.6 355.4L409.6 359.2L409.6 363.0L409.6 366.7L409.6 370.5L409.6 374.3L409.6 378.1L409.6 381.9L409.6 385.7L409.6 389.5L409.2 391.4L405.4 391.4L401.6 391.4L397.8 391.4L394.1 391.4L390.3 391.4L386.5 391.4L382.7 391.4L378.9 391.4L375.1 391.4L371.3 391.4L367.5 391.4L363.7 391.4L359.9 391.4L356.1 391.4L352.3 391.4L348.5 391.4L344.7 391.4L341.7 391.4L341.3 388.0L341.3 384.2L341.3 380.4L341.3 376.6L341.3 372.8L341.3 369.0L341.3 365.2L341.3 361.4L341.3 357.6L341.3 353.8L341.3 350.1L341.3 346.3L341.3 342.5L341.3 338.7L341.3 334.9L341.3 331.1L341.3 327.3L341.3 325.8Z"></path>
</svg>